<svg xmlns="http://www.w3.org/2000/svg" width="69" height="75" viewBox="0 0 69 75" fill="none"><path d="M47.4517 36.3564H53.8067V62.1516H47.4517V36.3564ZM47.1677 27.0249C47.1677 26.011 47.5455 25.1585 48.3021 24.4625C49.0583 23.7765 49.8909 23.4285 50.7991 23.4285C51.7073 23.4285 52.5296 23.7765 53.2674 24.4625C54.0052 25.1585 54.3736 26.0312 54.3736 27.0854C54.3736 28.1043 54.0052 28.9567 53.2674 29.6478C52.5296 30.3388 51.7073 30.6868 50.7991 30.6868C49.8909 30.6868 49.0583 30.3388 48.3021 29.6478C47.5455 28.9567 47.1677 28.0841 47.1677 27.0249Z" fill="white"></path><path d="M34.7332 0.679766L47.2465 17.3504H38.0881L34.7144 13.5572L31.3384 17.3655H22.1795L34.7299 0.669729" fill="#EB4A22"></path><path d="M27.7699 57.5716C28.9043 57.5716 29.9444 57.3597 30.8906 56.931C31.8354 56.5073 32.6296 55.8768 33.273 55.0445C33.9165 54.2122 34.3887 53.2236 34.6919 52.0837V46.4747C34.3887 45.4205 33.8884 44.4924 33.1886 43.7005C32.4883 42.9085 31.6566 42.2882 30.6921 41.8392C29.7271 41.3954 28.6776 41.1683 27.5432 41.1683C26.2182 41.1683 25.0082 41.5164 23.9109 42.2074C22.814 42.8985 21.9443 43.8518 21.3013 45.0724C20.6573 46.2931 20.3363 47.6954 20.3363 49.2792C20.3363 50.8277 20.6775 52.2299 21.3585 53.4859C22.0391 54.7469 22.9375 55.7456 24.0531 56.477C25.1683 57.2084 26.4078 57.5716 27.7699 57.5716ZM26.0112 63.1856C23.741 63.1856 21.689 62.6761 19.8548 61.6572C18.0191 60.6434 16.5721 59.1302 15.5142 57.1176C14.4544 55.105 13.925 52.6133 13.925 49.6474C13.925 46.7219 14.4826 44.2099 15.5991 42.1166C16.7143 40.0233 18.1895 38.4042 20.0242 37.2693C21.8589 36.1293 23.8546 35.5594 26.0112 35.5594C28.3172 35.5594 30.1716 36.0486 31.5716 37.0221C32.8736 37.9351 33.932 38.9994 34.7431 40.2251C34.8031 40.3159 35.203 36.7195 35.203 36.7195H41.1037V62.5148H34.6919V58.7468C34.6919 58.7468 34.8707 58.5198 34.437 59.0697C34.0015 59.6144 33.3777 60.2147 32.5648 60.8654C31.7505 61.516 30.8057 62.0659 29.7271 62.5148C28.6495 62.9587 27.4099 63.1856 26.0112 63.1856Z" fill="white"></path><path d="M4.30845 70.4944H64.5018V14.4753H53.1322L50.0697 10.1928H68.7687V74.6961H0.0415802V10.1928H18.7405L15.678 14.4753H4.30845V70.4944Z" fill="#F18166"></path></svg>