<svg xmlns="http://www.w3.org/2000/svg" id="svg2" viewBox="0 0 2068.14 617.64"><defs><style>      .cls-1 {        fill: #fff;      }      .cls-2 {        fill: #eb5d29;      }      .cls-3 {        fill: #f09374;      }    </style></defs><g id="g8"><g id="g10"><g id="g12"><path id="path18" class="cls-1" d="M425.12,297.74h56.98v215.22h-56.98v-215.22ZM422.58,219.9c0-8.47,3.39-15.6,10.17-21.37,6.78-5.76,14.25-8.65,22.39-8.65s15.52,2.89,22.13,8.65c6.61,5.77,9.92,13.06,9.92,21.88s-3.31,15.61-9.92,21.37c-6.61,5.77-13.99,8.65-22.13,8.65s-15.61-2.88-22.39-8.65c-6.79-5.77-10.17-13.05-10.17-21.88"></path><path id="path20" class="cls-1" d="M711.12,116.1h56.98v396.85h-56.98V116.1Z"></path><g id="g22"><path id="path24" class="cls-1" d="M896.36,443.2c5.28,7.58,11.88,13.62,19.79,18.12,9.83,5.59,21.03,8.39,33.58,8.39,8.82,0,17.3-1.53,25.44-4.58,8.14-3.05,15.77-7.12,22.89-12.21l25.95,42.23c-11.19,7.13-23.49,12.81-36.89,17.05-13.41,4.23-26.38,6.36-38.92,6.36-24.77,0-46.22-4.92-64.36-14.75-18.15-9.84-31.98-23.4-41.47-40.71-9.5-17.3-14.24-37.14-14.24-59.53s5.42-41.21,16.28-58.51c10.85-17.3,25.52-31.12,44.01-41.47,18.48-10.34,38.92-15.52,61.31-15.52,29.51,0,53.85,8.57,73.01,25.69,19.16,17.13,31.97,41.3,38.41,72.5l-165.54,55.83.74,1.1ZM884.52,409.29l113.01-40.51s-8.8-16.85-17.27-24.48c-8.48-7.63-20.19-11.45-35.11-11.45-11.88,0-22.39,2.89-31.55,8.65-9.16,5.77-16.37,13.65-21.62,23.66-5.26,10.01-7.89,21.62-7.89,34.85,0,2.7.1,5.33.3,7.88l.12,1.4Z"></path></g><g id="g26"><path id="path28" class="cls-1" d="M1903.34,443.2c5.28,7.58,11.88,13.62,19.79,18.12,9.83,5.59,21.03,8.39,33.58,8.39,8.82,0,17.3-1.53,25.44-4.58,8.14-3.05,15.77-7.12,22.89-12.21l25.95,42.23c-11.19,7.13-23.49,12.81-36.89,17.05-13.41,4.23-26.38,6.36-38.92,6.36-24.77,0-46.22-4.92-64.36-14.75-18.15-9.84-31.98-23.4-41.47-40.71-9.5-17.3-14.24-37.14-14.24-59.53s5.42-41.21,16.28-58.51c10.85-17.3,25.52-31.12,44.01-41.47,18.48-10.34,38.92-15.52,61.31-15.52,29.51,0,53.85,8.57,73.01,25.69,19.16,17.13,31.97,41.3,38.41,72.5l-165.54,55.83.74,1.1ZM1891.5,409.29l113.01-40.51s-8.8-16.85-17.27-24.48c-8.48-7.63-20.19-11.45-35.11-11.45-11.88,0-22.39,2.89-31.55,8.65-9.16,5.77-16.37,13.65-21.62,23.66-5.26,10.01-7.89,21.62-7.89,34.85,0,2.7.1,5.33.3,7.88l.12,1.4Z"></path></g><g id="g30"><path id="path32" class="cls-1" d="M1200.57,518.05l-123.63-220.31h67.67l59.15,122.93,53.29-122.93h64.11l-118.04,220.31h-2.55Z"></path></g><g id="g34"><path id="path36" class="cls-1" d="M1465.14,471.74c10.17,0,19.5-1.78,27.99-5.34,8.47-3.56,15.59-8.81,21.36-15.77,5.77-6.95,10.01-15.17,12.72-24.68v-46.81c-2.72-8.81-7.21-16.54-13.48-23.15-6.28-6.61-13.74-11.78-22.39-15.52-8.65-3.73-18.06-5.59-28.24-5.59-11.88,0-22.73,2.88-32.57,8.65-9.84,5.77-17.64,13.74-23.4,23.91-5.77,10.18-8.65,21.88-8.65,35.11s3.05,24.59,9.16,35.11c6.1,10.52,14.16,18.82,24.17,24.93,10,6.11,21.12,9.16,33.33,9.16M1449.36,518.55c-20.36,0-38.75-4.25-55.2-12.72-16.46-8.48-29.43-21.12-38.93-37.91-9.5-16.79-14.24-37.57-14.24-62.33s5-45.36,15.01-62.84c10-17.46,23.23-30.95,39.68-40.45,16.45-9.49,34.35-14.24,53.68-14.24,20.68,0,37.31,4.07,49.86,12.21,11.68,7.58,21.17,16.49,28.44,26.71.54.76,4.12-29.26,4.12-29.26h52.91v215.22h-57.49v-31.4s1.6-1.92-2.29,2.66c-3.91,4.58-9.5,9.59-16.79,15.01-7.3,5.43-15.78,10.01-25.44,13.74-9.66,3.73-20.78,5.6-33.32,5.6"></path></g><g id="g38"><path id="path40" class="cls-1" d="M1683.91,203.11h56.98v94.63h55.96v44.27h-55.96v170.95h-56.98v-170.95h-37.14v-44.27h37.14v-94.63Z"></path></g><g id="g42"><path id="path44" class="cls-2" d="M311.08.05l112.21,139.11h-82.13l-30.25-31.63-30.28,31.74h-82.13L311.05,0"></path></g><g id="g46"><path id="path48" class="cls-1" d="M248.64,474.79c10.18,0,19.5-1.78,27.99-5.34,8.47-3.56,15.59-8.81,21.36-15.77,5.77-6.95,10.01-15.17,12.72-24.68v-46.81c-2.72-8.81-7.21-16.54-13.48-23.15-6.28-6.61-13.74-11.78-22.39-15.52-8.65-3.73-18.06-5.59-28.24-5.59-11.88,0-22.73,2.88-32.56,8.65-9.84,5.77-17.64,13.74-23.41,23.91-5.77,10.18-8.65,21.88-8.65,35.11s3.05,24.59,9.16,35.11c6.1,10.52,14.15,18.82,24.16,24.93,10,6.11,21.12,9.16,33.33,9.16M232.87,521.6c-20.36,0-38.75-4.24-55.2-12.72-16.46-8.48-29.43-21.12-38.93-37.91-9.5-16.79-14.24-37.57-14.24-62.33s5-45.36,15.01-62.84c10-17.46,23.23-30.95,39.68-40.45,16.45-9.49,34.35-14.24,53.68-14.24,20.68,0,37.31,4.07,49.86,12.21,11.68,7.58,21.17,16.49,28.44,26.71.54.76,4.12-29.26,4.12-29.26h52.91v215.22h-57.49v-31.4s1.6-1.92-2.29,2.66c-3.91,4.58-9.5,9.59-16.79,15.01-7.3,5.43-15.78,10.01-25.44,13.74-9.66,3.73-20.78,5.6-33.32,5.6"></path></g><g id="g50"><path id="path52" class="cls-3" d="M38.26,582.61h539.76V115.17h-101.95l-27.46-35.72h167.67v538.19H0V79.45h167.67l-27.46,35.72H38.26v467.44Z"></path></g></g></g></g></svg>